<svg width="48" height="21" viewBox="0 0 48 21" fill="none" xmlns="http://www.w3.org/2000/svg">
<path d="M32 12.9219V6.53125H30.6406C29.0938 9.32812 27.2969 11.5312 25.5938 13.4062V14.6875H30V17H32V14.6875H33.4219V12.9219H32ZM30 12.9219H28.2188C28.8594 12.1562 29.375 11.4062 30 10.4688V12.9219ZM36.1406 14.7812C35.4531 14.7812 34.8906 15.3438 34.8906 16.0312C34.8906 16.7188 35.4531 17.2969 36.1406 17.2969C36.8281 17.2969 37.3906 16.7188 37.3906 16.0312C37.3906 15.3438 36.8281 14.7812 36.1406 14.7812ZM46.6875 6.53125H39.2656V8.46875H43.9219C42.3438 11.1406 40.5312 13.9219 40.5312 17H43.0312C43.0312 13.5156 44.4688 11.1562 46.6875 7.42188V6.53125Z" fill="#181C2E"/>
<path d="M10.8097 1.59021C10.8693 1.40539 11.1307 1.40539 11.1903 1.59021L13.1888 7.7868C13.2155 7.86957 13.2926 7.92561 13.3796 7.92542L19.8904 7.91119C20.0846 7.91076 20.1654 8.15945 20.0081 8.27325L14.7323 12.0887C14.6618 12.1397 14.6324 12.2303 14.6594 12.313L16.6849 18.5008C16.7453 18.6854 16.5338 18.839 16.3769 18.7246L11.1179 14.8861C11.0477 14.8348 10.9523 14.8348 10.8821 14.8861L5.62306 18.7246C5.4662 18.839 5.25466 18.6854 5.31507 18.5008L7.34057 12.313C7.36763 12.2303 7.33817 12.1397 7.2677 12.0887L1.99194 8.27325C1.83459 8.15945 1.91539 7.91076 2.10958 7.91119L8.62044 7.92542C8.70741 7.92561 8.78453 7.86957 8.81122 7.7868L10.8097 1.59021Z" stroke="#FF7622" stroke-width="2"/>
</svg>
